<svg xmlns="http://www.w3.org/2000/svg" viewBox="0 0 319.6543 263.6792"><defs><style>.\39 5b736c2-c3af-4b95-9a7c-f17f31392d17,.\39 d210dc1-19c0-4b71-a60a-68e4fa44d947{fill:#c25229;}.fa8c65dd-8997-421e-85c4-6baa80b5f2d7{fill:#f2f2f2;}.\37 a288124-3973-4034-a4ca-bbbec7e3999d{fill:#007a7a;}.a3deef27-b77a-4c12-9b44-5abb5c6eb315{fill:#007070;}.\39 d210dc1-19c0-4b71-a60a-68e4fa44d947{stroke:#c25229;stroke-miterlimit:10;stroke-width:3px;}</style></defs><title>Asset 19</title><g id="ce47c672-64fb-4a8d-9db8-4c4f152c1959" data-name="Layer 2"><g id="fb1c9dfa-ed8a-44c4-a515-53f00fc61795" data-name="Layer 1"><rect class="95b736c2-c3af-4b95-9a7c-f17f31392d17" x="3.6543" y="65.48389" width="316" height="41" rx="12" ry="12"/><path class="fa8c65dd-8997-421e-85c4-6baa80b5f2d7" d="M39.55469,87.94971H29.94531V100.5083H26.37109V72.0708H41.17578v3.06641H29.94531V84.8833h9.60938Z"/><path class="fa8c65dd-8997-421e-85c4-6baa80b5f2d7" d="M64.08594,88.78955q0,5.82055-2.48047,8.96484a8.45664,8.45664,0,0,1-7.05078,3.14454,8.56129,8.56129,0,0,1-6.94336-3.05664q-2.54883-3.0564-2.64649-8.64258V83.84814q0-5.70262,2.51954-8.93554a8.40985,8.40985,0,0,1,7.03124-3.23242,8.51106,8.51106,0,0,1,7.002,3.0957q2.50927,3.09594,2.56836,8.83789Zm-3.57422-4.98047q0-4.51171-1.47461-6.709a5.069,5.069,0,0,0-4.52149-2.19727,5.04894,5.04894,0,0,0-4.46289,2.22656q-1.51317,2.22657-1.5332,6.5625v5.09766a12.05021,12.05021,0,0,0,1.51367,6.64063,5.06492,5.06492,0,0,0,4.52149,2.28515A5.02581,5.02581,0,0,0,59.00781,95.606q1.44581-2.10937,1.50391-6.46485Z"/><path class="fa8c65dd-8997-421e-85c4-6baa80b5f2d7" d="M78.207,89.00439h-5V100.5083H69.61328V72.0708H77.582q4.17919,0,6.32813,2.17774,2.14892,2.17821,2.14843,6.37695a8.86359,8.86359,0,0,1-1.16211,4.59961,7.343,7.343,0,0,1-3.291,2.959l5.50781,12.08985v.23437H83.26562Zm-5-3.0664H77.543a4.64365,4.64365,0,0,0,3.584-1.44776,5.4856,5.4856,0,0,0,1.33789-3.87451q0-5.47851-4.96093-5.47851H73.207Z"/><path class="fa8c65dd-8997-421e-85c4-6baa80b5f2d7" d="M99.22266,100.5083V72.0708h7.51953a10.3498,10.3498,0,0,1,7.93945,3.16406q2.959,3.16407,3.01758,8.67188v4.60937q0,5.606-2.959,8.79883a10.568,10.568,0,0,1-8.15429,3.19336ZM104.96484,76.856V95.74268h1.71875q2.87111,0,4.043-1.51368,1.17188-1.51319,1.23047-5.22461V84.063q0-3.98437-1.11328-5.55664a4.49464,4.49464,0,0,0-3.78906-1.65039Z"/><path class="fa8c65dd-8997-421e-85c4-6baa80b5f2d7" d="M127.81641,100.5083h-5.74219V72.0708h5.74219Z"/><path class="fa8c65dd-8997-421e-85c4-6baa80b5f2d7" d="M144.65234,93.04736a3.56227,3.56227,0,0,0-.88867-2.62695,10.24242,10.24242,0,0,0-3.23242-1.8457,15.05758,15.05758,0,0,1-6.15234-3.79883,7.63314,7.63314,0,0,1-1.875-5.14649,7.21577,7.21577,0,0,1,2.54882-5.77148,10.59452,10.59452,0,0,1,11.14258-1.07422,7.65609,7.65609,0,0,1,3.1543,3.11524,9.34968,9.34968,0,0,1,1.10351,4.57031h-5.72265a4.71609,4.71609,0,0,0-.84961-3.03711,2.97755,2.97755,0,0,0-2.45117-1.04492,3.06879,3.06879,0,0,0-2.34375.88867,3.34325,3.34325,0,0,0-.83985,2.39258,2.946,2.946,0,0,0,.9375,2.11914,10.76339,10.76339,0,0,0,3.32032,1.96289,14.235,14.235,0,0,1,6.04492,3.6914,8.2229,8.2229,0,0,1,1.88476,5.56641,7.34108,7.34108,0,0,1-2.36328,5.80078,9.35354,9.35354,0,0,1-6.42578,2.08985,11.07053,11.07053,0,0,1-5.01953-1.13282,8.49063,8.49063,0,0,1-3.54492-3.24218,9.42129,9.42129,0,0,1-1.2793-4.98047h5.76172a5.4356,5.4356,0,0,0,.957,3.57422,3.91715,3.91715,0,0,0,3.125,1.11328Q144.65185,96.231,144.65234,93.04736Z"/><path class="fa8c65dd-8997-421e-85c4-6baa80b5f2d7" d="M172.66016,76.856h-7.03125V100.5083h-5.76172V76.856h-6.91407V72.0708h19.707Z"/><path class="fa8c65dd-8997-421e-85c4-6baa80b5f2d7" d="M184.57422,90.11768h-2.85156V100.5083h-5.74219V72.0708h9.16015a9.30464,9.30464,0,0,1,6.66993,2.23633,8.35149,8.35149,0,0,1,2.35351,6.35742q0,5.66455-4.12109,7.92969l4.98047,11.64062v.27344h-6.17188Zm-2.85156-4.78516h3.26172a3.02141,3.02141,0,0,0,2.57812-1.14258,4.96212,4.96212,0,0,0,.85938-3.05664q0-4.27734-3.33985-4.27734h-3.35937Z"/><path class="fa8c65dd-8997-421e-85c4-6baa80b5f2d7" d="M204.10547,100.5083h-5.74219V72.0708h5.74219Z"/><path class="fa8c65dd-8997-421e-85c4-6baa80b5f2d7" d="M228.207,91.03564q-.21533,4.86328-2.73437,7.36329-2.51953,2.50049-7.10938,2.5a8.95711,8.95711,0,0,1-7.39258-3.17383q-2.56786-3.17358-2.56836-9.05274V83.88721q0-5.85937,2.65625-9.03321a9.10234,9.10234,0,0,1,7.38282-3.17382q4.64795,0,7.06054,2.59765,2.4126,2.59791,2.74414,7.46094h-5.76171a7.65706,7.65706,0,0,0-.92774-4.15039,3.66015,3.66015,0,0,0-3.11523-1.14258,3.48385,3.48385,0,0,0-3.26172,1.61133,11.27171,11.27171,0,0,0-1.01563,5.30273V88.731q0,4.23852.94727,5.82031a3.48075,3.48075,0,0,0,3.25195,1.582,3.75944,3.75944,0,0,0,3.125-1.10351,7.2644,7.2644,0,0,0,.97656-3.99415Z"/><path class="fa8c65dd-8997-421e-85c4-6baa80b5f2d7" d="M249.59375,76.856H242.5625V100.5083h-5.76172V76.856h-6.91406V72.0708h19.707Z"/><path class="fa8c65dd-8997-421e-85c4-6baa80b5f2d7" d="M272.67969,100.5083h-5.54688V78.78955l-5.41015,2.08984V76.27l10.37109-4.23828h.58594Z"/><path class="fa8c65dd-8997-421e-85c4-6baa80b5f2d7" d="M285.668,83.77h2.67578a2.49931,2.49931,0,0,0,2.23633-1.06445,5.03,5.03,0,0,0,.71289-2.8418,4.2366,4.2366,0,0,0-.73242-2.64648,2.35459,2.35459,0,0,0-1.96289-.94727,2.32243,2.32243,0,0,0-1.88477.89844,3.46954,3.46954,0,0,0-.73242,2.26562h-5.52735a7.81359,7.81359,0,0,1,1.0254-3.99414,7.20137,7.20137,0,0,1,2.87109-2.76367,9.44223,9.44223,0,0,1,10.24414,1.17187,7.9044,7.9044,0,0,1,2.22656,5.9375,6.75749,6.75749,0,0,1-1.00586,3.584,6.8493,6.8493,0,0,1-2.64648,2.5293,6.08566,6.08566,0,0,1,2.998,2.57812,8.85621,8.85621,0,0,1-1.42579,10.13672,8.83728,8.83728,0,0,1-6.33789,2.28516,7.77583,7.77583,0,0,1-8.20312-8.1836h5.52734a4.0538,4.0538,0,0,0,.80078,2.5586,2.46421,2.46421,0,0,0,2.03125,1.03515,2.71834,2.71834,0,0,0,2.25586-1.05469,4.42005,4.42005,0,0,0,.83008-2.8125q0-4.199-3.26172-4.21875H285.668Z"/><path class="7a288124-3973-4034-a4ca-bbbec7e3999d" d="M92.30176,174.646l-11.44483.00879-.019-24.33594-16.95312.01367.019,24.335-11.48438.00977L52.375,117.80273l11.48438-.00927.01806,23.00732,16.95313-.01318-.01807-23.00733,11.44482-.00879Z"/><path class="7a288124-3973-4034-a4ca-bbbec7e3999d" d="M141.541,151.2876q.00879,11.44629-5.396,17.77734-5.406,6.33252-15.01465,6.33985-9.57129.00732-15.04394-6.25782-5.47413-6.26514-5.56055-17.55371l-.00733-9.727q-.00951-11.71875,5.415-18.30517,5.42359-6.58521,15.07325-6.59327,9.49218-.00732,14.96582,6.45313,5.47265,6.4607,5.56054,18.13965Zm-11.53028-9.52246q-.00659-7.69483-2.19678-11.44385a8.07959,8.07959,0,0,0-13.55468-.126q-2.18555,3.61524-2.25684,10.99756l.00781,10.11719q.00587,7.46192,2.23487,10.99512a7.5514,7.5514,0,0,0,6.87793,3.52929,7.36159,7.36159,0,0,0,6.67724-3.46191q2.18409-3.4585,2.21778-10.72461Z"/><path class="7a288124-3973-4034-a4ca-bbbec7e3999d" d="M186.74854,117.69775l.03076,39.375q-.07178,8.86816-4.87159,13.57813-4.801,4.71093-13.78564,4.7168-9.14062.00732-13.96826-4.75391-4.82886-4.76221-4.835-13.78516l-.03076-39.10156,11.5625-.00928.03076,39.14014q.00366,4.84423,1.56787,6.91309,1.563,2.06982,5.66553,2.0664,4.10156-.00439,5.62353-2.05566,1.522-2.05226,1.55713-6.73926l-.03076-39.33594Z"/><path class="7a288124-3973-4034-a4ca-bbbec7e3999d" d="M219.51562,159.62549a7.13,7.13,0,0,0-1.78124-5.25293,20.49657,20.49657,0,0,0-6.46778-3.68652q-8.55762-3.23437-12.31055-7.5879a15.26724,15.26724,0,0,1-3.7583-10.29,14.43277,14.43277,0,0,1,5.08887-11.54688q5.094-4.35864,12.9458-4.36523a19.39613,19.39613,0,0,1,9.33789,2.1997,15.31479,15.31479,0,0,1,6.3125,6.2251,18.69169,18.69169,0,0,1,2.21485,9.13867l-11.44532.00879a9.43154,9.43154,0,0,0-1.7041-6.07275,5.95643,5.95643,0,0,0-4.90429-2.08594,6.13716,6.13716,0,0,0-4.68555,1.78076,6.68121,6.68121,0,0,0-1.67578,4.78662,5.89067,5.89067,0,0,0,1.87793,4.23682,21.52675,21.52675,0,0,0,6.64355,3.9209q8.32324,3.00219,12.0957,7.373a16.45426,16.45426,0,0,1,3.77832,11.12989q.00586,7.42236-4.71777,11.60547-4.72412,4.18359-12.84863,4.18945a22.12834,22.12834,0,0,1-10.04-2.25781,16.9752,16.9752,0,0,1-7.09522-6.47852,18.84091,18.84091,0,0,1-2.5664-9.959l11.523-.00879q.00439,4.92188,1.91992,7.14648,1.91456,2.2251,6.252,2.22168Q219.51953,165.99219,219.51562,159.62549Z"/><path class="7a288124-3973-4034-a4ca-bbbec7e3999d" d="M268.0625,149.8999l-17.89062.01367.01171,15.07813,21.17188-.0166.00683,9.53125-32.65625.02539-.04394-56.87451,32.57812-.02539.00782,9.56982-21.09375.0166.00976,13.4375,17.89063-.01416Z"/><path class="7a288124-3973-4034-a4ca-bbbec7e3999d" d="M25.70312,42.73438a7.12866,7.12866,0,0,0-1.77734-5.25391,20.48534,20.48534,0,0,0-6.46484-3.69141q-8.5547-3.24169-12.30469-7.59765a15.26628,15.26628,0,0,1-3.75-10.293,14.43148,14.43148,0,0,1,5.09766-11.543Q11.60156.00049,19.45312,0a19.39743,19.39743,0,0,1,9.33594,2.207,15.31794,15.31794,0,0,1,6.3086,6.23047,18.69945,18.69945,0,0,1,2.207,9.14062H25.85938a9.43223,9.43223,0,0,0-1.69922-6.07421,5.95512,5.95512,0,0,0-4.90235-2.08985,6.13762,6.13762,0,0,0-4.6875,1.77735,6.68224,6.68224,0,0,0-1.67969,4.78515,5.89206,5.89206,0,0,0,1.875,4.23828,21.52625,21.52625,0,0,0,6.64063,3.92578q8.3203,3.00879,12.08984,7.38282a16.45057,16.45057,0,0,1,3.76953,11.13281q0,7.42236-4.72656,11.60156Q27.812,58.43848,19.6875,58.4375A22.13839,22.13839,0,0,1,9.64844,56.17188,16.98133,16.98133,0,0,1,2.55859,49.6875,18.83363,18.83363,0,0,1,0,39.72656H11.52344q0,4.92188,1.91406,7.14844,1.91308,2.22657,6.25,2.22656Q25.70215,49.10156,25.70312,42.73438Z"/><path class="7a288124-3973-4034-a4ca-bbbec7e3999d" d="M81.875.78125v39.375q-.07909,8.86816-4.88281,13.57422-4.80469,4.708-13.78907,4.707-9.14061,0-13.96484-4.76562-4.8252-4.76514-4.82422-13.78907V.78125h11.5625V39.92188q0,4.84423,1.5625,6.91406,1.56153,2.07129,5.66406,2.07031,4.10157,0,5.625-2.05078t1.5625-6.73828V.78125Z"/><path class="7a288124-3973-4034-a4ca-bbbec7e3999d" d="M102.07031,48.125h20.15625v9.53125H90.58594V.78125h11.48437Z"/><path class="7a288124-3973-4034-a4ca-bbbec7e3999d" d="M140.35156,48.125h20.15625v9.53125H128.86719V.78125h11.48437Z"/><path class="7a288124-3973-4034-a4ca-bbbec7e3999d" d="M179.14062,57.65625H167.65625V.78125h11.48437Z"/><path class="7a288124-3973-4034-a4ca-bbbec7e3999d" d="M207.30469,42.03125,216.875.78125h12.8125l-16.40625,56.875H201.32812L185.03906.78125h12.73438Z"/><path class="7a288124-3973-4034-a4ca-bbbec7e3999d" d="M259.25781,46.01562H243.59375l-3.04687,11.64063H228.39844L246.17188.78125h10.50781l17.89062,56.875H262.30469Zm-13.16406-9.57031h10.625l-5.3125-20.27343Z"/><path class="7a288124-3973-4034-a4ca-bbbec7e3999d" d="M319.64844,57.65625H308.16406L291.36719,20.35156V57.65625H279.88281V.78125h11.48438L308.20312,38.125V.78125h11.44532Z"/><path class="a3deef27-b77a-4c12-9b44-5abb5c6eb315" d="M139.56543,263.28857H123.667v-2.59765l8.10547-10.74219a23.623,23.623,0,0,0,2.54883-4.07227,8.14805,8.14805,0,0,0,.71289-3.36914,5.96415,5.96415,0,0,0-1.05469-3.67187,3.30466,3.30466,0,0,0-2.77344-1.40625,4.02315,4.02315,0,0,0-3.3496,1.49414A6.81082,6.81082,0,0,0,126.6748,243.23h-3.457a9.20957,9.20957,0,0,1,2.14844-6.34766,7.41068,7.41068,0,0,1,5.83984-2.42187,6.98565,6.98565,0,0,1,5.35157,2.08008,7.76234,7.76234,0,0,1,1.95312,5.53711q0,4.21875-4.39453,9.98047l-6.32812,8.28125h11.77734Z"/><path class="a3deef27-b77a-4c12-9b44-5abb5c6eb315" d="M158.6084,251.15967q0,6.29-1.83594,9.40429a6.89239,6.89239,0,0,1-11.44531.127q-1.875-2.98829-1.95313-8.98438v-4.88281q0-6.23,1.84571-9.29687a6.97513,6.97513,0,0,1,11.44531-.15625q1.8457,2.91064,1.94336,8.80859Zm-3.457-4.94141a16.63944,16.63944,0,0,0-.9961-6.65039,3.31812,3.31812,0,0,0-3.18359-2.13867,3.27941,3.27941,0,0,0-3.125,2.09961,15.79205,15.79205,0,0,0-1.03516,6.33789v5.85937a16.8908,16.8908,0,0,0,1.03516,6.74805,3.356,3.356,0,0,0,3.16406,2.25586,3.26521,3.26521,0,0,0,3.10547-2.12891,16.4675,16.4675,0,0,0,1.03516-6.5039Z"/><path class="a3deef27-b77a-4c12-9b44-5abb5c6eb315" d="M173.45215,263.28857h-3.47656v-24.082l-5.97657,2.67578v-3.28125l8.90625-3.88671h.54688Z"/><path class="a3deef27-b77a-4c12-9b44-5abb5c6eb315" d="M197.53418,242.273a7.50807,7.50807,0,0,1-.94727,3.78906,6.92616,6.92616,0,0,1-2.54882,2.59766,7.21442,7.21442,0,0,1,2.96875,2.80273,8.03656,8.03656,0,0,1,1.07421,4.15039,8.186,8.186,0,0,1-2.08007,5.86914,8.02625,8.02625,0,0,1-11.03516,0,9.09355,9.09355,0,0,1-1.01562-10.05859,6.93856,6.93856,0,0,1,2.90039-2.7832,6.7266,6.7266,0,0,1-2.51954-2.58789,7.63671,7.63671,0,0,1-.918-3.7793,8.08814,8.08814,0,0,1,1.94336-5.70313,7.28568,7.28568,0,0,1,10.23437-.01953A8.07557,8.07557,0,0,1,197.53418,242.273ZM194.624,255.53467a6.18847,6.18847,0,0,0-1.15234-3.916,3.66,3.66,0,0,0-3.02734-1.47461,3.55733,3.55733,0,0,0-3.01758,1.48438,6.389,6.389,0,0,0-1.10352,3.90625,6.01879,6.01879,0,0,0,1.084,3.82812,4.13329,4.13329,0,0,0,6.14257,0A6.05993,6.05993,0,0,0,194.624,255.53467Zm-.52734-13.20313a5.77934,5.77934,0,0,0-1.01563-3.53515,3.20165,3.20165,0,0,0-5.23437-.01953,5.923,5.923,0,0,0-.97656,3.55468,5.69816,5.69816,0,0,0,.99609,3.53516,3.27647,3.27647,0,0,0,5.25391-.01953A5.79712,5.79712,0,0,0,194.09668,242.33154Z"/><circle class="9d210dc1-19c0-4b71-a60a-68e4fa44d947" cx="19.6543" cy="205.48389" r="7.5"/><circle class="9d210dc1-19c0-4b71-a60a-68e4fa44d947" cx="60.6543" cy="205.48389" r="7.5"/><circle class="9d210dc1-19c0-4b71-a60a-68e4fa44d947" cx="100.6543" cy="205.48389" r="7.5"/><circle class="9d210dc1-19c0-4b71-a60a-68e4fa44d947" cx="141.6543" cy="205.48389" r="7.5"/><circle class="9d210dc1-19c0-4b71-a60a-68e4fa44d947" cx="180.6543" cy="205.48389" r="7.5"/><circle class="9d210dc1-19c0-4b71-a60a-68e4fa44d947" cx="220.6543" cy="205.48389" r="7.5"/><circle class="9d210dc1-19c0-4b71-a60a-68e4fa44d947" cx="261.6543" cy="205.48389" r="7.5"/><circle class="9d210dc1-19c0-4b71-a60a-68e4fa44d947" cx="302.6543" cy="205.48389" r="7.5"/></g></g></svg>