<?xml version="1.0" encoding="utf-8"?>
<!-- Generator: Adobe Illustrator 22.1.0, SVG Export Plug-In . SVG Version: 6.00 Build 0)  -->
<svg version="1.1" id="Layer_1" xmlns="http://www.w3.org/2000/svg" xmlns:xlink="http://www.w3.org/1999/xlink" x="0px" y="0px"
	 viewBox="0 0 574 367.3" style="enable-background:new 0 0 574 367.3;" xml:space="preserve">
<style type="text/css">
	.st0{fill:#007EA8;}
	.st1{fill:#FFFFFF;}
	.st2{fill:#E5BA4E;}
</style>
<title>Artboard 8 copy</title>
<path class="st0" d="M21.2,15.4c0,0,295.5,16.5,512.2,4.9c0,0,6.3,6-6.3,19s-14,11.3-8.4,17.6c0,0,11.2,3.9,7,10.5
	c0,0,4.2,5.6,9.3,3.5c0,0,13.9,2.5,13.2,18.3c0,0-1.4,20,0,29.6c0,0,3.2,1,0,22.5c0,0,4.9,93.2,5.6,104.8c0,0,4.9,12.7-3.5,14.1
	c0,0-9.5-0.4-2.8,9.1c0,0,6.3,7,0,9.9c0,0-8.1,9.5,2.8,7c0,0,8.8-3.5,4.9,15.5c0,0-1.4,18.6-9.2,26.7c0,0-3.5,9.1,4.2,12.7
	c0,0,7.3,4.9,5.9,9.8c0,0,3.9,8.1-4.5,6.3c0,0-4.6,3.9-14.8-13.4c0,0-7-9.1-11.3-7.7c0,0-5.3,4.9-9.1-0.7c0,0-10.6,0-14.1-7.7
	c0,0-6.7-8.4-14.1-4.9c0,0-4.9,7.4-12,2.8c0,0-9.1,4.6-13.4,1.4c0,0-6.7,2.5-7-0.7c0,0-3.5-1-2.8,3.5c0,0-4.2,7.4-14.8,4.2
	c0,0-1.4-6.3-11.3-6.3c0,0-12.3-4.2-19-14.8c0,0-338.9,4.6-401.6-3.5L21.2,15.4z"/>
<path class="st1" d="M96.5,148.5c-4.8-4-10.9-6.2-17.1-6.4c-5.1,0-9.6,2.4-9.6,7.1c0,12.5,31.5,8.5,31.5,31.4
	c0,11.7-9.2,20.4-24.2,20.4c-8.4-0.2-16.6-2.9-23.4-7.9l5.8-9.8c3.7,2.7,10.6,6.9,17.6,6.9s11-4,11-9.5c0-13.8-31.6-9.8-31.6-31.4
	c0-11.2,9.3-18,21.9-18c9.8,0,16.5,3.7,19.2,5.9L96.5,148.5z"/>
<path class="st1" d="M139.6,200.7c-19.6,0-28.4-11.8-28.4-33.3v-35.1h13.5v35.1c0,14.6,4,22.4,14.8,22.4c11,0,15-7.7,15-22.2v-35.3
	H168v35.3C168.1,189.1,159.4,200.7,139.6,200.7z"/>
<path class="st1" d="M182.4,199.9v-67.6h13.5v56.9h26.5l-2.6,10.7H182.4z"/>
<path class="st1" d="M231.9,199.9v-67.6h13.5v56.9h26.5l-2.6,10.7H231.9z"/>
<path class="st1" d="M281.3,199.9v-67.6h13.5v67.6H281.3z"/>
<path class="st1" d="M335,175.9l18.3-43.6h14.3L336,201.4h-2.1l-31.7-69.1h14.2L335,175.9z"/>
<path class="st1" d="M426.1,199.9h-14.3l-5.9-12.5h-29.3l-5.8,12.5h-14.5l33.9-69.3h2L426.1,199.9z M391.2,154.2l-10.6,23.2h21.3
	L391.2,154.2z"/>
<path class="st1" d="M491,201.1l-43.7-42.7v41.5h-13.5v-69h2.1l43.7,42.8v-41.4h13.5v68.8H491z"/>
<path class="st2" d="M67.8,251.7h-12v-32.3h12.5c9.8,0,15.1,5.6,15.1,16S77.8,251.7,67.8,251.7z M66.7,225.3H63v20.4h3.5
	c6.6,0,10-2.2,10-10.4S73.2,225.3,66.7,225.3L66.7,225.3z"/>
<path class="st2" d="M89.2,251.7v-32.3h7.2v32.3H89.2z"/>
<path class="st2" d="M117.3,252.1c-10.6,0-14.6-4.4-14.7-12h7.2c0.2,3.4,2,6,7.3,6c4.5,0,6.1-1.4,6.3-3.4c0.7-7-19.7-1.9-20-13.4
	c-0.2-5.7,3.1-10.3,13.2-10.3s13.3,5,13.4,11.4h-7.1c-0.4-3.3-1.5-5.4-6.6-5.4c-4.7,0-6,1.6-5.8,3.8c0.4,5.1,19.9,0.9,19.9,13.2
	C130.4,246.8,127.3,252.1,117.3,252.1z"/>
<path class="st2" d="M149.3,225.3v26.4h-7.1v-26.4h-8.4v-6h23.9v6H149.3z"/>
<path class="st2" d="M179.7,251.7l-10.6-12.9v12.9H162v-32.3h11.9c12.3,0,13.7,6.3,13.7,10.5c0,3.8-1.3,9.2-9.5,9.9l11.2,12
	L179.7,251.7z M174.1,225.3h-5v9.1h5c5.1,0,6.1-2.4,6.1-4.4S179.2,225.3,174.1,225.3L174.1,225.3z"/>
<path class="st2" d="M193.2,251.7v-32.3h7.2v32.3H193.2z"/>
<path class="st2" d="M221.2,252.1c-12.3,0-14.9-7.7-14.9-16.6s2.8-16.5,14.9-16.5c10.7,0,14.6,5.9,14.6,12.6h-7.3
	c-0.5-3.9-2.2-6.6-7.3-6.6c-6.6,0-7.7,4.7-7.7,10.6s1.2,10.6,7.7,10.6c5.2,0,6.8-2.6,7.3-6.7h7.4C236,246.5,232.1,252.1,221.2,252.1
	z"/>
<path class="st2" d="M252.5,225.3v26.4h-7.1v-26.4H237v-6h24v6H252.5z"/>
<path class="st2" d="M279.8,251.7v-26.4h-6.1v-4.9l6.1-1h7.2v32.3L279.8,251.7z"/>
<path class="st2" d="M304.8,252.1c-9,0-12.5-4.9-12.5-11.4h6.8c0,3.4,2,5.6,6,5.6c3.6,0,5-2.4,5-4.8s-1.2-4.6-6.1-4.6h-6.4v-5.3
	l11-6.4h-15v-6H316v7.8l-9.5,5.1c4.5,0,10.6,1.6,10.6,9.3C317,247.1,313.5,252.1,304.8,252.1z"/>
<path class="st2" d="M353.9,251.7v-13.6h-13.1v13.6h-7.2v-32.3h7.2v12.9h13.1v-12.9h7.2v32.3H353.9z"/>
<path class="st2" d="M382.2,252.1c-12.7,0-15.5-7.7-15.5-16.6s2.8-16.5,15.5-16.5s15.5,7.7,15.5,16.6S394.9,252.1,382.2,252.1z
	 M382.2,224.9c-7,0-8.1,4.7-8.1,10.6s1.2,10.6,8.1,10.6s8.2-4.6,8.2-10.6S389.3,224.9,382.2,224.9z"/>
<path class="st2" d="M431.1,237.3c0,10.5-3.9,14.8-14,14.8s-14-4.3-14-14.8v-17.9h7.3V237c0,5.4,0.9,8.8,6.7,8.8s6.8-3.4,6.8-8.8
	v-17.6h7.2L431.1,237.3z"/>
<path class="st2" d="M451.4,252.1c-10.6,0-14.6-4.4-14.6-12h7.2c0.1,3.4,2,6,7.3,6c4.5,0,6.1-1.4,6.3-3.4c0.7-7-19.7-1.9-20-13.4
	c-0.1-5.7,3.1-10.3,13.2-10.3s13.3,5,13.4,11.4H457c-0.4-3.3-1.5-5.4-6.6-5.4c-4.7,0-6,1.6-5.8,3.8c0.5,5.1,19.9,0.9,19.9,13.2
	C464.5,246.8,461.5,252.1,451.4,252.1z"/>
<path class="st2" d="M470.8,251.7v-32.3h22.9v6h-15.8v7h14.2v5.8h-14.2v7.6h15.8v6L470.8,251.7z"/>
<polygon class="st2" points="286.8,82.7 290.8,94.9 303.5,94.9 293.2,102.4 297.1,114.6 286.8,107.1 276.5,114.6 280.4,102.4 
	270,94.9 282.9,94.9 "/>
<polygon class="st1" points="349.4,83 353.4,95.2 366.2,95.2 355.8,102.7 359.8,114.8 349.4,107.3 339.1,114.8 343,102.7 
	332.7,95.2 345.5,95.2 "/>
<polygon class="st1" points="415.5,83 419.5,95.2 432.3,95.2 421.9,102.7 425.9,114.8 415.5,107.3 405.2,114.8 409.1,102.7 
	398.8,95.2 411.6,95.2 "/>
<polygon class="st1" points="475.8,83 479.7,95.2 492.5,95.2 482.2,102.7 486.1,114.8 475.8,107.3 465.4,114.8 469.4,102.7 
	459,95.2 471.8,95.2 "/>
<polygon class="st1" points="227.3,83 231.2,95.2 244,95.2 233.7,102.7 237.6,114.8 227.3,107.3 216.9,114.8 220.9,102.7 
	210.5,95.2 223.3,95.2 "/>
<path class="st2" d="M74.3,115l-11.6-14.6V115h-7.2V82.7h7.2v13.6l10.8-13.6h9.7L69,98.1L84,115H74.3z"/>
<path class="st2" d="M85.4,115V82.7h22.9v6H92.5v7h14.2v5.8H92.5v7.6h15.8v6L85.4,115z"/>
<path class="st2" d="M114,115V82.7h7.3v26.4h11v6L114,115z"/>
<path class="st2" d="M136.7,115V82.7h7.3v26.4h11v6L136.7,115z"/>
<path class="st2" d="M175.1,105.2v9.8h-7.5v-9.8l-11.7-22.5h7.6l7.9,16.4l8.3-16.4h7.6L175.1,105.2z"/>
</svg>
