<svg id="Layer_1" data-name="Layer 1" xmlns="http://www.w3.org/2000/svg" viewBox="0 0 574 367.33"><defs><style>.cls-1{fill:#007782;}.cls-2{fill:#fff;}.cls-3{fill:#c69047;}</style></defs><title>Artboard 8 copy</title><path class="cls-1" d="M21.19,15.36s295.48,16.53,512.17,4.92c0,0,6.33,6-6.33,19S513,50.54,518.59,56.87c0,0,11.25,3.87,7,10.55,0,0,4.22,5.63,9.33,3.52,0,0,13.89,2.46,13.19,18.29,0,0-1.36,20,0,29.55,0,0,3.19,1,0,22.51,0,0,4.9,93.22,5.61,104.83,0,0,4.92,12.66-3.52,14.07,0,0-9.5-.35-2.82,9.14,0,0,6.34,7,0,9.85,0,0-8.09,9.5,2.82,7,0,0,8.83-3.52,4.94,15.48,0,0-1.42,18.64-9.16,26.73,0,0-3.52,9.15,4.22,12.67,0,0,7.29,4.92,5.93,9.84,0,0,3.92,8.1-4.53,6.34,0,0-4.57,3.87-14.77-13.37,0,0-7-9.15-11.26-7.74,0,0-5.27,4.93-9.14-.7,0,0-10.56,0-14.07-7.74,0,0-6.69-8.44-14.07-4.93,0,0-4.93,7.39-12,2.82,0,0-9.15,4.57-13.37,1.4,0,0-6.68,2.47-7-.7,0,0-3.51-1.05-2.81,3.52,0,0-4.22,7.39-14.77,4.22,0,0-1.41-6.33-11.26-6.33,0,0-12.31-4.22-19-14.78,0,0-338.91,4.58-401.62-3.51Z"/><path class="cls-2" d="M96.47,148.54a28.22,28.22,0,0,0-17.11-6.43c-5.12,0-9.59,2.39-9.59,7.08,0,12.53,31.5,8.5,31.5,31.39,0,11.66-9.16,20.38-24.2,20.38a41.52,41.52,0,0,1-23.43-7.85l5.78-9.81C63.12,186,70,190.17,77,190.17s11-4,11-9.48c0-13.84-31.61-9.81-31.61-31.39,0-11.23,9.27-18,21.91-18,9.81,0,16.46,3.7,19.19,5.88Z"/><path class="cls-2" d="M139.64,200.74c-19.62,0-28.45-11.77-28.45-33.35V132.3h13.52v35.09c0,14.61,4,22.45,14.82,22.45,11,0,15-7.73,15-22.23V132.3h13.51v35.31C168.08,189.08,159.37,200.74,139.64,200.74Z"/><path class="cls-2" d="M182.37,199.87V132.3h13.51v56.89h26.49l-2.62,10.68Z"/><path class="cls-2" d="M231.85,199.87V132.3h13.52v56.89h26.48l-2.61,10.68Z"/><path class="cls-2" d="M281.34,199.87V132.3h13.51v67.57Z"/><path class="cls-2" d="M335,175.89l18.31-43.59h14.28l-31.61,69.1h-2.07l-31.71-69.1h14.17Z"/><path class="cls-2" d="M426.08,199.87H411.81l-5.89-12.53H376.6l-5.78,12.53H356.33l33.89-69.32h2ZM391.21,154.2l-10.58,23.22h21.26Z"/><path class="cls-2" d="M491.05,201.07l-43.71-42.72v41.52H433.83v-69h2.07l43.7,42.83V132.3h13.52v68.77Z"/><path class="cls-3" d="M67.79,251.68h-12V219.36H68.34c9.85,0,15.11,5.6,15.11,16S77.84,251.68,67.79,251.68Zm-1.06-26.36H63v20.4h3.48c6.57,0,10-2.22,10-10.45S73.24,225.32,66.73,225.32Z"/><path class="cls-3" d="M89.25,251.68V219.36h7.17v32.32Z"/><path class="cls-3" d="M117.28,252.09c-10.61,0-14.6-4.4-14.65-12h7.17c.15,3.38,2,6,7.28,6,4.49,0,6.06-1.42,6.26-3.44.7-7-19.7-1.87-20-13.43-.15-5.66,3.13-10.26,13.18-10.26s13.33,5,13.43,11.42h-7.12c-.4-3.29-1.51-5.36-6.56-5.36-4.7,0-6,1.57-5.81,3.84.45,5.15,19.9.91,19.9,13.19C130.36,246.78,127.33,252.09,117.28,252.09Z"/><path class="cls-3" d="M149.34,225.32v26.36h-7.07V225.32h-8.38v-6h23.94v6Z"/><path class="cls-3" d="M179.7,251.68,169.14,238.8v12.88H162V219.36h11.87c12.27,0,13.68,6.26,13.68,10.5,0,3.84-1.26,9.25-9.49,9.85l11.21,12Zm-5.56-26.36h-5v9.09h5c5.05,0,6.06-2.38,6.06-4.45S179.19,225.32,174.14,225.32Z"/><path class="cls-3" d="M193.23,251.68V219.36h7.17v32.32Z"/><path class="cls-3" d="M221.25,252.09c-12.32,0-14.95-7.73-14.95-16.57S209.08,219,221.25,219c10.71,0,14.65,5.91,14.65,12.58h-7.32c-.46-3.94-2.22-6.62-7.33-6.62-6.56,0-7.72,4.7-7.72,10.61s1.16,10.61,7.72,10.61c5.16,0,6.82-2.63,7.33-6.67H236C236,246.53,232.11,252.09,221.25,252.09Z"/><path class="cls-3" d="M252.46,225.32v26.36h-7.07V225.32H237v-6H261v6Z"/><path class="cls-3" d="M279.78,251.68V225.32h-6.11v-4.95l6.11-1H287v32.32Z"/><path class="cls-3" d="M304.78,252.09c-9,0-12.53-4.9-12.53-11.37h6.82c0,3.44,2,5.56,6,5.56,3.59,0,5-2.43,5-4.75s-1.16-4.55-6.11-4.55h-6.41v-5.3l11-6.36h-15v-6h22.47v7.78l-9.49,5.05c4.49,0,10.6,1.61,10.6,9.34C317,247.09,313.52,252.09,304.78,252.09Z"/><path class="cls-3" d="M353.87,251.68V238.1H340.79v13.58h-7.23V219.36h7.23v12.93h13.08V219.36h7.22v32.32Z"/><path class="cls-3" d="M382.2,252.09c-12.68,0-15.46-7.73-15.46-16.57S369.57,219,382.2,219s15.5,7.73,15.5,16.62S394.92,252.09,382.2,252.09Zm0-27.18c-7,0-8.14,4.7-8.14,10.61s1.17,10.61,8.14,10.61,8.18-4.65,8.18-10.56S389.27,224.91,382.2,224.91Z"/><path class="cls-3" d="M431.08,237.29c0,10.5-3.94,14.8-14,14.8s-14-4.3-14-14.8V219.36h7.32V237c0,5.41.86,8.79,6.72,8.79s6.77-3.38,6.77-8.79V219.36h7.22Z"/><path class="cls-3" d="M451.43,252.09c-10.6,0-14.6-4.4-14.64-12H444c.15,3.38,2,6,7.27,6,4.49,0,6.06-1.42,6.26-3.44.71-7-19.7-1.87-20-13.43-.15-5.66,3.13-10.26,13.18-10.26s13.34,5,13.44,11.42H457c-.41-3.29-1.52-5.36-6.57-5.36-4.7,0-6,1.57-5.81,3.84.46,5.15,19.9.91,19.9,13.19C464.51,246.78,461.48,252.09,451.43,252.09Z"/><path class="cls-3" d="M470.77,251.68V219.36h22.88v6H477.89v7h14.19v5.81H477.89v7.62h15.76v6Z"/><polygon class="cls-3" points="286.8 82.72 290.75 94.89 303.55 94.89 293.2 102.41 297.15 114.57 286.8 107.05 276.45 114.57 280.4 102.41 270.05 94.89 282.85 94.89 286.8 82.72"/><polygon class="cls-2" points="349.43 82.98 353.39 95.15 366.18 95.15 355.83 102.67 359.79 114.83 349.43 107.31 339.08 114.83 343.04 102.67 332.69 95.15 345.48 95.15 349.43 82.98"/><polygon class="cls-2" points="415.52 82.98 419.47 95.15 432.26 95.15 421.91 102.67 425.87 114.83 415.52 107.31 405.17 114.83 409.12 102.67 398.77 95.15 411.56 95.15 415.52 82.98"/><polygon class="cls-2" points="475.77 82.98 479.73 95.15 492.52 95.15 482.17 102.67 486.12 114.83 475.77 107.31 465.42 114.83 469.37 102.67 459.02 95.15 471.82 95.15 475.77 82.98"/><polygon class="cls-2" points="227.27 82.98 231.22 95.15 244.02 95.15 233.67 102.67 237.62 114.83 227.27 107.31 216.92 114.83 220.87 102.67 210.52 95.15 223.32 95.15 227.27 82.98"/><path class="cls-3" d="M74.31,115,62.75,100.42V115H55.57V82.69h7.18V96.28L73.5,82.69h9.7L69,98.09,84,115Z"/><path class="cls-3" d="M85.37,115V82.69h22.88v6H92.49v7h14.19v5.81H92.49v7.62h15.76v6Z"/><path class="cls-3" d="M114,115V82.69h7.27l0,26.36h11v6Z"/><path class="cls-3" d="M136.73,115V82.69H144L144,109.05h11v6Z"/><path class="cls-3" d="M175.06,105.22V115h-7.48v-9.79L155.92,82.69h7.57l7.93,16.36,8.33-16.36h7.58Z"/></svg>