<svg xmlns="http://www.w3.org/2000/svg" viewBox="0 0 319.65 263.68"><defs><style>.cls-1,.cls-5{fill:#c25229;}.cls-2{fill:#f2f2f2;}.cls-3{fill:#007a7a;}.cls-4{fill:#007070;}.cls-5{stroke:#c25229;stroke-miterlimit:10;stroke-width:3px;}</style></defs><title>Asset 18</title><g id="Layer_2" data-name="Layer 2"><g id="Layer_1-2" data-name="Layer 1"><rect class="cls-1" x="3.65" y="65.48" width="316" height="41" rx="12" ry="12"/><path class="cls-2" d="M39.55,88H30v12.56H26.37V72.07H41.18v3.07H30v9.74h9.6Z"/><path class="cls-2" d="M64.09,88.79q0,5.82-2.48,9a8.47,8.47,0,0,1-7.06,3.15,8.55,8.55,0,0,1-6.94-3.06Q45.06,94.78,45,89.2V83.85q0-5.7,2.52-8.94a8.44,8.44,0,0,1,7-3.23,8.51,8.51,0,0,1,7,3.1c1.67,2.06,2.53,5,2.57,8.83Zm-3.58-5q0-4.52-1.47-6.71a5.09,5.09,0,0,0-4.52-2.2,5.07,5.07,0,0,0-4.47,2.23q-1.52,2.22-1.53,6.56v5.1c0,2.9.5,5.12,1.51,6.64a5.08,5.08,0,0,0,4.52,2.29A5.05,5.05,0,0,0,59,95.61q1.44-2.11,1.5-6.47Z"/><path class="cls-2" d="M78.21,89h-5v11.51h-3.6V72.07h8q4.19,0,6.33,2.18t2.15,6.38a8.93,8.93,0,0,1-1.16,4.6,7.42,7.42,0,0,1-3.29,3l5.5,12.09v.24H83.27Zm-5-3.06h4.33a4.64,4.64,0,0,0,3.59-1.45,5.5,5.5,0,0,0,1.33-3.87c0-3.66-1.65-5.48-5-5.48H73.21Z"/><path class="cls-2" d="M99.22,100.51V72.07h7.52a10.38,10.38,0,0,1,7.94,3.16q3,3.17,3,8.68v4.61c0,3.73-1,6.67-3,8.79a10.56,10.56,0,0,1-8.15,3.2ZM105,76.86V95.74h1.72c1.92,0,3.27-.5,4-1.51S111.92,91.48,112,89V84.06c0-2.65-.37-4.51-1.12-5.55a4.47,4.47,0,0,0-3.79-1.65Z"/><path class="cls-2" d="M127.82,100.51h-5.75V72.07h5.75Z"/><path class="cls-2" d="M144.65,93.05a3.53,3.53,0,0,0-.89-2.63,10.29,10.29,0,0,0-3.23-1.85,15.07,15.07,0,0,1-6.15-3.79,7.66,7.66,0,0,1-1.88-5.15,7.2,7.2,0,0,1,2.55-5.77,9.64,9.64,0,0,1,6.48-2.18,9.79,9.79,0,0,1,4.67,1.1,7.76,7.76,0,0,1,3.15,3.12,9.39,9.39,0,0,1,1.1,4.57h-5.72a4.71,4.71,0,0,0-.85-3,3,3,0,0,0-2.45-1,3,3,0,0,0-2.34.89,3.33,3.33,0,0,0-.84,2.39,3,3,0,0,0,.93,2.12,11,11,0,0,0,3.32,2,14.19,14.19,0,0,1,6.05,3.69A8.22,8.22,0,0,1,150.43,93a7.32,7.32,0,0,1-2.36,5.8,9.37,9.37,0,0,1-6.43,2.09,11.18,11.18,0,0,1-5-1.13,8.49,8.49,0,0,1-3.54-3.25,9.41,9.41,0,0,1-1.28-5h5.76a5.44,5.44,0,0,0,1,3.58,3.92,3.92,0,0,0,3.12,1.11Q144.66,96.23,144.65,93.05Z"/><path class="cls-2" d="M172.66,76.86h-7v23.65h-5.76V76.86H153V72.07h19.71Z"/><path class="cls-2" d="M184.57,90.12h-2.85v10.39H176V72.07h9.16a9.31,9.31,0,0,1,6.67,2.24,8.34,8.34,0,0,1,2.35,6.35q0,5.67-4.12,7.93l5,11.64v.28h-6.17Zm-2.85-4.79H185a3,3,0,0,0,2.58-1.14,4.92,4.92,0,0,0,.86-3.06q0-4.27-3.34-4.27h-3.36Z"/><path class="cls-2" d="M204.11,100.51h-5.75V72.07h5.75Z"/><path class="cls-2" d="M228.21,91q-.22,4.86-2.74,7.36t-7.11,2.5A9,9,0,0,1,211,97.73q-2.57-3.18-2.57-9.06V83.89q0-5.86,2.66-9a9.11,9.11,0,0,1,7.38-3.17q4.65,0,7.06,2.6c1.61,1.73,2.52,4.22,2.75,7.46h-5.77a7.69,7.69,0,0,0-.92-4.15,3.68,3.68,0,0,0-3.12-1.14,3.48,3.48,0,0,0-3.26,1.61,11.22,11.22,0,0,0-1,5.3v5.37q0,4.24,1,5.82a3.47,3.47,0,0,0,3.25,1.58,3.75,3.75,0,0,0,3.13-1.1,7.24,7.24,0,0,0,1-4Z"/><path class="cls-2" d="M249.59,76.86h-7v23.65H236.8V76.86h-6.91V72.07h19.7Z"/><path class="cls-2" d="M272.68,100.51h-5.55V78.79l-5.41,2.09V76.27L272.09,72h.59Z"/><path class="cls-2" d="M285.67,83.77h2.67a2.5,2.5,0,0,0,2.24-1.06,5,5,0,0,0,.71-2.85,4.21,4.21,0,0,0-.73-2.64,2.36,2.36,0,0,0-2-1,2.33,2.33,0,0,0-1.89.9,3.45,3.45,0,0,0-.73,2.26h-5.53a7.75,7.75,0,0,1,1-4,7.13,7.13,0,0,1,2.87-2.76,9.42,9.42,0,0,1,10.24,1.17,7.87,7.87,0,0,1,2.23,5.94,6.69,6.69,0,0,1-1,3.58,6.89,6.89,0,0,1-2.64,2.53,6.07,6.07,0,0,1,3,2.58,8.08,8.08,0,0,1,1,4.06,8,8,0,0,1-2.41,6.07,8.82,8.82,0,0,1-6.34,2.29,7.77,7.77,0,0,1-8.2-8.18h5.53a4,4,0,0,0,.8,2.55,2.46,2.46,0,0,0,2,1,2.69,2.69,0,0,0,2.25-1.06,4.37,4.37,0,0,0,.83-2.81c0-2.8-1.08-4.2-3.26-4.22h-2.71Z"/><path class="cls-3" d="M92.3,174.65H80.86l0-24.33h-17l0,24.34H52.42l0-56.88H63.86l0,23H80.83l0-23H92.26Z"/><path class="cls-3" d="M141.54,151.29q0,11.44-5.39,17.77t-15,6.34q-9.57,0-15-6.25t-5.56-17.56v-9.72q0-11.73,5.41-18.31T121,117q9.48,0,15,6.45t5.56,18.14ZM130,141.77q0-7.7-2.2-11.45a8.08,8.08,0,0,0-13.55-.12q-2.19,3.62-2.26,11v10.12q0,7.45,2.24,11a7.52,7.52,0,0,0,6.87,3.52,7.35,7.35,0,0,0,6.68-3.46q2.19-3.45,2.22-10.72Z"/><path class="cls-3" d="M186.75,117.7l0,39.37q-.08,8.87-4.87,13.58t-13.79,4.72q-9.13,0-14-4.76t-4.83-13.78l0-39.1h11.56l0,39.14c0,3.23.53,5.53,1.57,6.91s2.93,2.07,5.66,2.07,4.61-.69,5.63-2.06,1.53-3.61,1.56-6.74l0-39.33Z"/><path class="cls-3" d="M219.52,159.63a7.17,7.17,0,0,0-1.79-5.26,20.43,20.43,0,0,0-6.46-3.68q-8.57-3.24-12.31-7.59a15.21,15.21,0,0,1-3.76-10.29,14.41,14.41,0,0,1,5.09-11.55q5.09-4.35,12.94-4.36a19.32,19.32,0,0,1,9.34,2.2,15.19,15.19,0,0,1,6.31,6.22,18.71,18.71,0,0,1,2.22,9.14H219.65a9.42,9.42,0,0,0-1.7-6.07,6,6,0,0,0-4.91-2.09,6.15,6.15,0,0,0-4.68,1.78,6.69,6.69,0,0,0-1.68,4.79,5.88,5.88,0,0,0,1.88,4.23A21.43,21.43,0,0,0,215.2,141q8.33,3,12.1,7.38a16.49,16.49,0,0,1,3.78,11.13q0,7.43-4.72,11.6t-12.85,4.19a22,22,0,0,1-10-2.26,16.88,16.88,0,0,1-7.09-6.47,18.81,18.81,0,0,1-2.57-10h11.52q0,4.92,1.92,7.14T213.5,166Q219.52,166,219.52,159.63Z"/><path class="cls-3" d="M268.06,149.9H250.17V165h21.18v9.53l-32.65,0-.05-56.87,32.58,0v9.57l-21.1,0v13.44l17.89,0Z"/><path class="cls-3" d="M25.7,42.73a7.15,7.15,0,0,0-1.77-5.25,20.68,20.68,0,0,0-6.47-3.69q-8.55-3.24-12.3-7.6A15.25,15.25,0,0,1,1.41,15.9,14.44,14.44,0,0,1,6.5,4.36Q11.6,0,19.45,0a19.44,19.44,0,0,1,9.34,2.21A15.34,15.34,0,0,1,35.1,8.44a18.7,18.7,0,0,1,2.2,9.14H25.86a9.47,9.47,0,0,0-1.7-6.08,6,6,0,0,0-4.9-2.09,6.16,6.16,0,0,0-4.69,1.78A6.69,6.69,0,0,0,12.89,16a5.88,5.88,0,0,0,1.88,4.23,21.29,21.29,0,0,0,6.64,3.93q8.31,3,12.09,7.38a16.48,16.48,0,0,1,3.77,11.14q0,7.41-4.73,11.6T19.69,58.44a22.15,22.15,0,0,1-10-2.27,17,17,0,0,1-7.09-6.48A18.81,18.81,0,0,1,0,39.73H11.52q0,4.92,1.92,7.15c1.27,1.48,3.36,2.22,6.25,2.22Q25.71,49.1,25.7,42.73Z"/><path class="cls-3" d="M81.88.78V40.16Q81.79,49,77,53.73T63.2,58.44q-9.14,0-14-4.77T44.41,39.88V.78H56V39.92q0,4.84,1.56,6.92t5.66,2.07c2.74,0,4.61-.69,5.63-2s1.53-3.62,1.56-6.74V.78Z"/><path class="cls-3" d="M102.07,48.12h20.16v9.54H90.59V.78h11.48Z"/><path class="cls-3" d="M140.35,48.12h20.16v9.54H128.87V.78h11.48Z"/><path class="cls-3" d="M179.14,57.66H167.66V.78h11.48Z"/><path class="cls-3" d="M207.3,42,216.88.78h12.81L213.28,57.66H201.33L185,.78h12.73Z"/><path class="cls-3" d="M259.26,46H243.59l-3,11.64H228.4L246.17.78h10.51l17.89,56.88H262.3Zm-13.17-9.57h10.63l-5.31-20.28Z"/><path class="cls-3" d="M319.65,57.66H308.16L291.37,20.35V57.66H279.88V.78h11.49L308.2,38.12V.78h11.45Z"/><path class="cls-4" d="M139.57,263.29h-15.9v-2.6l8.1-10.74a22.85,22.85,0,0,0,2.55-4.07,8.09,8.09,0,0,0,.71-3.37,6,6,0,0,0-1.05-3.67,3.3,3.3,0,0,0-2.77-1.41,4,4,0,0,0-3.35,1.49,6.81,6.81,0,0,0-1.19,4.31h-3.45a9.18,9.18,0,0,1,2.15-6.35,7.42,7.42,0,0,1,5.84-2.42,7,7,0,0,1,5.35,2.08,7.77,7.77,0,0,1,1.95,5.54q0,4.21-4.39,10l-6.33,8.28h11.78Z"/><path class="cls-4" d="M158.61,251.16c0,4.19-.61,7.33-1.84,9.4a6.88,6.88,0,0,1-11.44.13c-1.25-2-1.9-5-2-9v-4.89q0-6.23,1.85-9.29a7,7,0,0,1,11.45-.16c1.23,1.94,1.87,4.88,1.94,8.81Zm-3.46-4.94a16.7,16.7,0,0,0-1-6.65,3.33,3.33,0,0,0-3.19-2.14,3.27,3.27,0,0,0-3.12,2.1,15.74,15.74,0,0,0-1,6.34v5.86a16.84,16.84,0,0,0,1,6.74,3.35,3.35,0,0,0,3.16,2.26,3.27,3.27,0,0,0,3.11-2.13,16.63,16.63,0,0,0,1-6.5Z"/><path class="cls-4" d="M173.45,263.29H170V239.21l-6,2.67V238.6l8.91-3.89h.54Z"/><path class="cls-4" d="M197.53,242.27a7.5,7.5,0,0,1-.94,3.79,6.92,6.92,0,0,1-2.55,2.6,7.29,7.29,0,0,1,3,2.8,9,9,0,0,1-1,10,8,8,0,0,1-11,0,9.11,9.11,0,0,1-1-10.06,7,7,0,0,1,2.9-2.78,6.68,6.68,0,0,1-2.52-2.59,7.67,7.67,0,0,1-.92-3.78,8.08,8.08,0,0,1,2-5.7,7.28,7.28,0,0,1,10.23,0A8,8,0,0,1,197.53,242.27Zm-2.91,13.26a6.16,6.16,0,0,0-1.15-3.91,3.68,3.68,0,0,0-3-1.48,3.55,3.55,0,0,0-3,1.49,6.35,6.35,0,0,0-1.11,3.9,6,6,0,0,0,1.09,3.83,4.12,4.12,0,0,0,6.14,0A6,6,0,0,0,194.62,255.53Zm-.52-13.2a5.75,5.75,0,0,0-1-3.53,3.19,3.19,0,0,0-5.23,0,5.92,5.92,0,0,0-1,3.55,5.68,5.68,0,0,0,1,3.54,3.27,3.27,0,0,0,5.25,0A5.83,5.83,0,0,0,194.1,242.33Z"/><circle class="cls-5" cx="19.65" cy="205.48" r="7.5"/><circle class="cls-5" cx="60.65" cy="205.48" r="7.5"/><circle class="cls-5" cx="100.65" cy="205.48" r="7.5"/><circle class="cls-5" cx="141.65" cy="205.48" r="7.5"/><circle class="cls-5" cx="180.65" cy="205.48" r="7.5"/><circle class="cls-5" cx="220.65" cy="205.48" r="7.5"/><circle class="cls-5" cx="261.65" cy="205.48" r="7.5"/><circle class="cls-5" cx="302.65" cy="205.48" r="7.5"/></g></g></svg>