<?xml version="1.0" encoding="utf-8"?>
<!-- Generator: Adobe Illustrator 22.0.1, SVG Export Plug-In . SVG Version: 6.00 Build 0)  -->
<svg version="1.1" id="Layer_1" xmlns="http://www.w3.org/2000/svg" xmlns:xlink="http://www.w3.org/1999/xlink" x="0px" y="0px"
	 viewBox="0 0 512 512" style="enable-background:new 0 0 512 512;" xml:space="preserve">
<style type="text/css">
	.st0{fill:#C25229;}
</style>
<g>
	<g>
		<path class="st0" d="M306.6,327l-45.2-45.2c4.2-6.5,6.5-14,6.5-21.9c0-22.1-18-40.1-40.2-40.1c-7.9,0-15.4,2.3-21.9,6.5
			l-45.2-45.2c-2.9-2.9-7.5-3.3-10.8-0.8l-39.2,28.6c-2,1.4-3.2,3.7-3.4,6.1s0.7,4.8,2.4,6.5l13.7,13.7L13.8,400.2
			c-2.2,3.3-1.8,7.7,1,10.5l7.5,7.6L9.7,430.9c-3.3,3.3-3.3,8.5,0,11.8l36.4,36.4c1.6,1.6,3.7,2.4,5.9,2.4s4.3-0.9,5.9-2.4
			l12.4-12.4l6.2,6.3c1.6,1.6,3.8,2.5,5.9,2.5c1.6,0,3.2-0.5,4.6-1.4l16.6-11l39.1,46.1c1.6,1.9,4,2.9,6.4,2.9
			c1.2,0,2.5-0.3,3.6-0.8l32.9-16c2.1-1,3.7-2.9,4.3-5.1s0.3-4.7-0.9-6.7l-8.3-13.6l15.9-15.8c2.6-2.6,3.2-6.5,1.5-9.7l-16.9-32.7
			l71.1-47.1l13.7,13.7c1.6,1.6,3.7,2.4,5.9,2.4c0.2,0,0.4,0,0.6,0c2.4-0.2,4.6-1.4,6.1-3.4l28.6-39.2
			C309.8,334.5,309.5,329.9,306.6,327z M227.7,236.5c13,0,23.5,10.5,23.5,23.5c0,3.4-0.7,6.6-2.1,9.6l-31.1-31
			C221.1,237.2,224.3,236.5,227.7,236.5z M52,461.4l-24.7-24.7l6.7-6.7l24.6,24.8L52,461.4z M151.3,493.3l-33.6-39.6l24.3-16.1
			l28.3,46.5L151.3,493.3z M172,455l-16.2-26.6l11.6-7.7l13.2,25.6L172,455z M83.6,456.3l-52.1-52.6l103.9-156.5l105.1,105
			L83.6,456.3z M271.1,359.4L128.3,216.6l25.6-18.7l135.9,135.8L271.1,359.4z"/>
	</g>
</g>
<g>
	<g>
		<path class="st0" d="M499.6,155.6l-51.3-21.4l52.4-87.8c2-3.3,1.4-7.5-1.3-10.2c-2.7-2.7-6.9-3.2-10.2-1.2l-68.5,41.4l4-40.1
			c0.3-3-1.1-6-3.6-7.7c-2.5-1.7-5.8-1.9-8.5-0.5l-51.4,26.8L344.3,5.6c-1.1-3.3-4.1-5.5-7.6-5.6c-3.4-0.1-6.6,1.9-8,5L301,69.6
			l-38.8-21.9c-2.5-1.4-5.5-1.4-8-0.1c-2.5,1.3-4.2,3.9-4.4,6.7l-11.7,150c-0.4,4.6,3.1,8.6,7.7,9c4.6,0.3,8.6-3.1,9-7.7l10.7-136.9
			l35.5,20c2.1,1.2,4.5,1.4,6.8,0.6c2.2-0.8,4.1-2.4,5-4.6l22.9-53.3l13,37.9c0.8,2.3,2.5,4.1,4.8,5c2.3,0.9,4.8,0.8,6.9-0.4
			l46.3-24.2l-4.2,41.4c-0.3,3.1,1.2,6.2,3.8,7.9c2.7,1.7,6.1,1.7,8.8,0.1l54.3-32.8l-40.2,67.4c-1.2,2.1-1.5,4.6-0.8,6.9
			c0.8,2.3,2.5,4.1,4.7,5.1l39.5,16.5L432,175.6c-2.8,0.9-4.9,3.2-5.5,6c-0.7,2.8,0.2,5.8,2.3,7.8l20,19.8l-164.4,42.7
			c-4.5,1.2-7.1,5.7-6,10.2c1,3.8,4.4,6.2,8.1,6.2c0.7,0,1.4-0.1,2.1-0.3l178.6-46.4c2.9-0.8,5.2-3,6-5.9c0.8-2.9-0.1-6-2.2-8.1
			l-20.8-20.5l48.9-16c3.3-1.1,5.6-4.1,5.7-7.6C504.9,160.1,502.8,156.9,499.6,155.6z"/>
	</g>
</g>
<g>
	<g>
		<path class="st0" d="M373.5,172.2c-2.4-3.9-7.6-5.1-11.5-2.7l-70,43.3c-3.9,2.4-5.1,7.6-2.7,11.5c1.6,2.5,4.3,3.9,7.1,3.9
			c1.5,0,3-0.4,4.4-1.2l70-43.3C374.7,181.3,376,176.1,373.5,172.2z"/>
	</g>
</g>
<g>
	<g>
		<path class="st0" d="M326.6,138.4c-3.6-2.9-8.8-2.2-11.7,1.4l-31.7,40c-2.9,3.6-2.2,8.8,1.4,11.7c1.5,1.2,3.4,1.8,5.2,1.8
			c2.5,0,4.9-1.1,6.5-3.2l31.7-40C330.8,146.5,330.2,141.3,326.6,138.4z"/>
	</g>
</g>
</svg>
